<svg width="24" height="25" viewBox="0 0 24 25" fill="none" xmlns="http://www.w3.org/2000/svg">
<path d="M16 10.5C16 11.5609 15.5786 12.5783 14.8284 13.3284C14.0783 14.0786 13.0609 14.5 12 14.5C10.9391 14.5 9.92172 14.0786 9.17157 13.3284C8.42143 12.5783 8 11.5609 8 10.5C8 9.43913 8.42143 8.42172 9.17157 7.67157C9.92172 6.92143 10.9391 6.5 12 6.5C13.0609 6.5 14.0783 6.92143 14.8284 7.67157C15.5786 8.42172 16 9.43913 16 10.5Z" fill="#0F0C0D"/>
<path fill-rule="evenodd" clip-rule="evenodd" d="M11.592 22.492C6.2585 22.278 2 17.886 2 12.5C2 6.977 6.477 2.5 12 2.5C17.523 2.5 22 6.977 22 12.5C22 18.023 17.523 22.5 12 22.5H11.863C11.7723 22.5 11.682 22.4973 11.592 22.492ZM5.583 18.81C5.50823 18.5953 5.48278 18.3665 5.50854 18.1406C5.5343 17.9147 5.6106 17.6975 5.73179 17.5051C5.85298 17.3128 6.01593 17.1502 6.20856 17.0294C6.40119 16.9086 6.61855 16.8328 6.8445 16.8075C10.7425 16.376 13.2815 16.415 17.1605 16.8165C17.3868 16.8401 17.6046 16.9149 17.7976 17.0354C17.9905 17.1559 18.1534 17.3189 18.2739 17.5119C18.3943 17.7048 18.4691 17.9227 18.4927 18.149C18.5162 18.3753 18.4877 18.6039 18.4095 18.8175C20.0721 17.1355 21.0031 14.865 21 12.5C21 7.5295 16.9705 3.5 12 3.5C7.0295 3.5 3 7.5295 3 12.5C3 14.958 3.9855 17.186 5.583 18.81Z" fill="#0F0C0D"/>
</svg>
